<svg aria-hidden="true" style="position: absolute; width: 0; height: 0; overflow: hidden;" version="1.1" xmlns="http://www.w3.org/2000/svg" xmlns:xlink="http://www.w3.org/1999/xlink">
<defs>
<symbol id="icon-facebook" viewBox="0 0 19 32">
<path fill="none" stroke="#fff" style="stroke: var(--color1, #fff)" stroke-linejoin="miter" stroke-linecap="butt" stroke-miterlimit="4" stroke-width="1.6" d="M16.588 12.655h-3.859v-2.388c0-0.518 0.13-0.939 0.381-1.223 0.234-0.265 0.679-0.527 1.572-0.527h2.918v-5.691l-0.626-0.14-0.174 0.781c0.174-0.781 0.174-0.781 0.174-0.781l-0.001-0-0.002-0-0.024-0.005-0.069-0.015c-0.060-0.012-0.146-0.030-0.255-0.051-0.217-0.042-0.526-0.097-0.896-0.152-0.736-0.109-1.731-0.221-2.738-0.221-2.070 0-3.879 0.638-5.173 1.935s-1.98 3.167-1.98 5.452v3.025h-4.235v6.488h4.235v11.9h6.682v-11.9h3.897l0.115-0.664 1.009-5.824h-0.951z"></path>
</symbol>
<symbol id="icon-instagram" viewBox="0 0 32 32">
<path fill="none" stroke="#fff" style="stroke: var(--color1, #fff)" stroke-linejoin="miter" stroke-linecap="butt" stroke-miterlimit="4" stroke-width="1.6" d="M6.56 2.242h18.88c2.739 0 4.96 2.221 4.96 4.96v18.88c0 2.739-2.221 4.96-4.96 4.96h-18.88c-2.739 0-4.96-2.221-4.96-4.96v-18.88c0-2.739 2.221-4.96 4.96-4.96z"></path>
<path fill="none" stroke="#fff" style="stroke: var(--color1, #fff)" stroke-linejoin="miter" stroke-linecap="butt" stroke-miterlimit="4" stroke-width="1.6" d="M22.4 16.642c0 3.535-2.865 6.4-6.4 6.4s-6.4-2.865-6.4-6.4c0-3.535 2.865-6.4 6.4-6.4s6.4 2.865 6.4 6.4z"></path>
<path fill="#fff" style="fill: var(--color1, #fff)" d="M28 7.042c0 1.325-1.075 2.4-2.4 2.4s-2.4-1.075-2.4-2.4c0-1.325 1.075-2.4 2.4-2.4s2.4 1.075 2.4 2.4z"></path>
</symbol>
<symbol id="icon-arrow" viewBox="0 0 32 32">
<path fill="#fff" style="fill: var(--color1, #fff)" d="M15.34 23.117l-9.333-9.333c-0.087-0.087-0.155-0.19-0.202-0.303s-0.071-0.235-0.071-0.357c0-0.123 0.024-0.244 0.071-0.357s0.116-0.216 0.202-0.303c0.087-0.087 0.19-0.155 0.303-0.202s0.235-0.071 0.357-0.071c0.123 0 0.244 0.024 0.357 0.071s0.216 0.116 0.303 0.202l8.673 8.674 8.673-8.674c0.175-0.175 0.413-0.274 0.66-0.274s0.485 0.098 0.66 0.274c0.175 0.175 0.273 0.413 0.273 0.66s-0.098 0.485-0.273 0.66l-9.333 9.333c-0.087 0.087-0.19 0.156-0.303 0.203s-0.235 0.071-0.357 0.071c-0.123 0-0.244-0.024-0.357-0.071s-0.216-0.116-0.303-0.203z"></path>
</symbol>
<symbol id="icon-logo" viewBox="0 0 43 32">
<path fill="#fff" style="fill: var(--color1, #fff)" d="M22.719 18.906c-0.381-0.069-0.766-0.101-1.141-0.101s-0.763 0.033-1.141 0.101c-0.851 0.15-1.663 0.47-2.387 0.936v-7.137l3.528-2.034 8.845 5.109h5.093c0.297 0 0.587 0.006 0.864 0.013l-14.802-8.545-14.779 8.532h5.934l2.318-1.34v11.017c0.055 3.12 2.305 5.761 5.386 6.305 0.381 0.068 0.766 0.101 1.141 0.101s0.76-0.033 1.141-0.101c3.12-0.551 5.386-3.254 5.386-6.426s-2.266-5.875-5.386-6.426v-0.003zM22.53 28.632c-0.623 0.179-1.285 0.179-1.907 0-1.461-0.421-2.481-1.78-2.481-3.299s1.020-2.879 2.481-3.299c0.31-0.088 0.629-0.134 0.952-0.134s0.642 0.046 0.952 0.134c1.461 0.421 2.481 1.777 2.481 3.299s-1.020 2.879-2.481 3.299h0.003z"></path>
<path fill="#fff" style="fill: var(--color1, #fff)" d="M7.888 28.635c-0.613 0.189-1.281 0.202-1.907 0.039-1.513-0.401-2.569-1.774-2.569-3.342s1.056-2.941 2.569-3.342c0.626-0.166 1.294-0.15 1.907 0.036 0.919 0.284 1.679 0.949 2.093 1.8h3.237c-0.587-2.484-2.598-4.427-5.132-4.907-0.404-0.075-0.815-0.114-1.219-0.114-0.352 0-0.707 0.029-1.060 0.088-1.157 0.189-2.246 0.691-3.149 1.454-1.474 1.245-2.318 3.061-2.318 4.988s0.844 3.743 2.318 4.988c0.903 0.763 1.992 1.265 3.149 1.454 0.352 0.059 0.711 0.088 1.060 0.088 0.404 0 0.815-0.039 1.219-0.114 1.288-0.245 2.458-0.864 3.391-1.793 0.864-0.864 1.464-1.937 1.741-3.117h-3.237c-0.414 0.857-1.17 1.516-2.093 1.8v-0.007z"></path>
<path fill="#fff" style="fill: var(--color1, #fff)" d="M21.578 0l-21.238 12.35v3.472l21.234-12.35 18.206 10.586v5.758c-0.74-0.47-1.568-0.782-2.435-0.926-0.349-0.055-0.704-0.085-1.053-0.085-0.408 0-0.822 0.039-1.226 0.117-3.071 0.584-5.301 3.28-5.301 6.41s2.23 5.826 5.301 6.41c0.407 0.078 0.818 0.117 1.226 0.117 0.349 0 0.701-0.029 1.053-0.085 0.867-0.14 1.695-0.456 2.435-0.923v1.011h3.039v-19.506l-21.241-12.357zM37.175 28.655c-0.287 0.075-0.584 0.114-0.88 0.114-0.349 0-0.694-0.052-1.024-0.156-1.441-0.45-2.409-1.767-2.409-3.28s0.968-2.83 2.409-3.28c0.329-0.104 0.675-0.157 1.024-0.157 0.297 0 0.593 0.039 0.88 0.114 1.503 0.398 2.556 1.764 2.556 3.319s-1.050 2.924-2.556 3.322v0.003z"></path>
</symbol>
</defs>
</svg>
